<?xml version="1.0" encoding="iso-8859-1"?>
<!-- Generator: Adobe Illustrator 19.0.0, SVG Export Plug-In . SVG Version: 6.00 Build 0)  -->
<svg version="1.1" id="Capa_1" xmlns="http://www.w3.org/2000/svg" xmlns:xlink="http://www.w3.org/1999/xlink" x="0px" y="0px"
	 viewBox="0 0 511.92 511.92" style="enable-background:new 0 0 511.92 511.92;" xml:space="preserve">
<g>
	<g>
		<g>
			<path d="M182.817,191.92h146.286c5.047-0.005,9.138-4.095,9.143-9.143v-9.143c-0.005-5.047-4.095-9.138-9.143-9.143H182.817
				c-5.047,0.005-9.138,4.096-9.143,9.143v9.143C173.679,187.824,177.77,191.915,182.817,191.92z"/>
			<path d="M222.24,146.205h67.44c18.414-10.219,29.962-29.501,30.28-50.558c0-15.54-21.349-50.112-57.098-92.482
				c-1.73-2.008-4.249-3.164-6.9-3.165c-2.651-0.002-5.171,1.15-6.904,3.156c-11.372,13.481-21.094,26.041-29.328,37.58
				c1.171,16.963,9.545,32.614,23.007,43c2.739,1.8,4.304,4.929,4.103,8.201c-0.202,3.271-2.139,6.185-5.078,7.635
				s-6.43,1.217-9.149-0.613c-12.917-8.917-22.423-21.957-26.958-36.984c-7.11,10.012-11.797,21.539-13.694,33.671
				C192.278,116.704,203.826,135.986,222.24,146.205z"/>
			<rect x="210.245" y="210.205" width="91.429" height="100.571"/>
			<path d="M134.153,438.777h243.614l5.577-13.942c1.826-4.567,1.734-9.677-0.253-14.177c-1.987-4.499-5.704-8.008-10.309-9.734
				l-45.345-17.004H184.484l-45.345,17.005c-4.606,1.726-8.322,5.235-10.309,9.734c-1.987,4.499-2.079,9.609-0.253,14.177
				L134.153,438.777z"/>
			<path d="M182.817,365.634h146.286c5.047-0.005,9.138-4.095,9.143-9.143v-18.286c-0.005-5.047-4.095-9.138-9.143-9.143H182.817
				c-5.047,0.005-9.138,4.095-9.143,9.143v18.286C173.679,361.538,177.77,365.629,182.817,365.634z"/>
			<path d="M402.245,457.062H383.99l-0.03,0.004l-0.023-0.004H127.983l-0.023,0.004l-0.03-0.004h-18.256
				c-5.047,0.005-9.138,4.095-9.143,9.143v36.571c0.005,5.047,4.096,9.138,9.143,9.143h9.143v-18.286
				c0-5.049,4.093-9.143,9.143-9.143s9.143,4.093,9.143,9.143v18.286h18.286v-18.286c0-5.049,4.093-9.143,9.143-9.143
				c5.049,0,9.143,4.093,9.143,9.143v18.286h18.286v-18.286c0-5.049,4.093-9.143,9.143-9.143c5.049,0,9.143,4.093,9.143,9.143
				v18.286h18.286v-18.286c0-5.049,4.093-9.143,9.143-9.143s9.143,4.093,9.143,9.143v18.286h18.286v-18.286
				c0-5.049,4.093-9.143,9.143-9.143c5.049,0,9.143,4.093,9.143,9.143v18.286h18.286v-18.286c0-5.049,4.093-9.143,9.143-9.143
				c5.049,0,9.143,4.093,9.143,9.143v18.286h18.286v-18.286c0-5.049,4.093-9.143,9.143-9.143s9.143,4.093,9.143,9.143v18.286h18.286
				v-18.286c0-5.049,4.093-9.143,9.143-9.143s9.143,4.093,9.143,9.143v18.286h9.143c5.047-0.005,9.138-4.095,9.143-9.143v-36.571
				C411.383,461.158,407.293,457.067,402.245,457.062z"/>
		</g>
	</g>
</g>
<g>
</g>
<g>
</g>
<g>
</g>
<g>
</g>
<g>
</g>
<g>
</g>
<g>
</g>
<g>
</g>
<g>
</g>
<g>
</g>
<g>
</g>
<g>
</g>
<g>
</g>
<g>
</g>
<g>
</g>
</svg>
