<?xml version="1.0" encoding="iso-8859-1"?>
<!-- Generator: Adobe Illustrator 19.0.0, SVG Export Plug-In . SVG Version: 6.00 Build 0)  -->
<svg version="1.1" id="Capa_1" xmlns="http://www.w3.org/2000/svg" xmlns:xlink="http://www.w3.org/1999/xlink" x="0px" y="0px"
	 viewBox="0 0 512.025 512.025" style="enable-background:new 0 0 512.025 512.025;" xml:space="preserve">
<g>
	<g>
		<path d="M392.546,426.692h-4.46l2.668-6.671c3.408-8.526,3.239-18.065-0.469-26.464c-3.708-8.399-10.643-14.952-19.239-18.178
			l-26.556-9.958c3.471-4.434,5.367-9.898,5.389-15.529v-17.067c-0.015-14.132-11.468-25.585-25.6-25.6h-8.533v-93.867h8.533
			c14.132-0.015,25.585-11.468,25.6-25.6v-8.533c-0.015-14.132-11.468-25.585-25.6-25.6h-10.031
			c11.829-12.881,18.446-29.7,18.565-47.188c0-24.3-31.167-66.338-57.308-97.317c-4.824-5.778-11.962-9.119-19.49-9.121
			c-7.527-0.002-14.667,3.336-19.494,9.112c-26.142,30.988-57.308,73.025-57.308,97.325c0.118,17.488,6.735,34.307,18.565,47.188
			h-10.031c-14.132,0.015-25.585,11.468-25.6,25.6v8.533c0.015,14.132,11.468,25.585,25.6,25.6h8.533v93.867h-8.533
			c-14.132,0.015-25.585,11.468-25.6,25.6v17.067c0.022,5.631,1.918,11.095,5.389,15.529l-26.556,9.958
			c-8.596,3.226-15.531,9.778-19.239,18.178c-3.708,8.399-3.877,17.938-0.469,26.464l2.668,6.671h-4.46
			c-14.132,0.015-25.585,11.468-25.6,25.6v34.133c0.015,14.132,11.468,25.585,25.6,25.6h273.067
			c14.132-0.015,25.585-11.468,25.6-25.6v-34.133C418.131,438.16,406.678,426.707,392.546,426.692z M196.279,106.438
			c1.77-11.324,6.145-22.082,12.781-31.427c4.233,14.025,13.105,26.196,25.161,34.518c2.538,1.708,5.796,1.926,8.539,0.572
			s4.552-4.073,4.74-7.126c0.188-3.053-1.273-5.974-3.829-7.654c-12.565-9.694-20.38-24.302-21.473-40.133
			c7.685-10.77,16.759-22.493,27.373-35.075c1.617-1.872,3.97-2.948,6.444-2.946s4.825,1.08,6.44,2.954
			c33.366,39.545,53.292,71.812,53.292,86.316c-0.297,19.653-11.075,37.649-28.261,47.188h-62.944
			C207.354,144.087,196.576,126.091,196.279,106.438z M187.746,196.292c-4.711-0.005-8.529-3.822-8.533-8.533v-8.533
			c0.005-4.711,3.822-8.529,8.533-8.533h136.533c4.711,0.005,8.529,3.822,8.533,8.533v8.533c-0.005,4.711-3.822,8.529-8.533,8.533
			H187.746z M298.679,213.359v93.867h-85.333v-93.867H298.679z M179.213,332.825c0.005-4.711,3.822-8.529,8.533-8.533h136.533
			c4.711,0.005,8.529,3.823,8.533,8.533v17.067c-0.005,4.711-3.822,8.529-8.533,8.533H187.746c-4.711-0.005-8.529-3.822-8.533-8.533
			V332.825z M137.357,400.448c1.855-4.199,5.323-7.474,9.622-9.085l42.322-15.871h133.422l42.322,15.871
			c4.299,1.611,7.767,4.886,9.622,9.085s1.94,8.969,0.236,13.231l-5.205,13.013H142.326l-5.205-13.012
			C135.417,409.417,135.502,404.647,137.357,400.448z M401.079,486.425c-0.005,4.711-3.822,8.529-8.533,8.533h-8.533v-17.067
			c0-4.713-3.82-8.533-8.533-8.533s-8.533,3.82-8.533,8.533v17.067h-17.067v-17.067c0-4.713-3.82-8.533-8.533-8.533
			s-8.533,3.82-8.533,8.533v17.067h-17.067v-17.067c0-4.713-3.82-8.533-8.533-8.533s-8.533,3.82-8.533,8.533v17.067h-17.067v-17.067
			c0-4.713-3.82-8.533-8.533-8.533s-8.533,3.82-8.533,8.533v17.067h-17.067v-17.067c0-4.713-3.82-8.533-8.533-8.533
			s-8.533,3.82-8.533,8.533v17.067h-17.067v-17.067c0-4.713-3.82-8.533-8.533-8.533s-8.533,3.82-8.533,8.533v17.067h-17.067v-17.067
			c0-4.713-3.82-8.533-8.533-8.533c-4.713,0-8.533,3.82-8.533,8.533v17.067h-17.067v-17.067c0-4.713-3.82-8.533-8.533-8.533
			s-8.533,3.82-8.533,8.533v17.067h-8.533c-4.711-0.005-8.529-3.822-8.533-8.533v-34.133c0.005-4.711,3.822-8.529,8.533-8.533
			h17.039l0.028,0.004l0.021-0.004h238.891l0.021,0.004l0.028-0.004h17.039c4.711,0.005,8.529,3.823,8.533,8.533V486.425z"/>
	</g>
</g>
<g>
</g>
<g>
</g>
<g>
</g>
<g>
</g>
<g>
</g>
<g>
</g>
<g>
</g>
<g>
</g>
<g>
</g>
<g>
</g>
<g>
</g>
<g>
</g>
<g>
</g>
<g>
</g>
<g>
</g>
</svg>
