<?xml version="1.0" encoding="iso-8859-1"?>
<!-- Generator: Adobe Illustrator 19.0.0, SVG Export Plug-In . SVG Version: 6.00 Build 0)  -->
<svg version="1.1" id="Capa_1" xmlns="http://www.w3.org/2000/svg" xmlns:xlink="http://www.w3.org/1999/xlink" x="0px" y="0px"
	 viewBox="0 0 503.504 503.504" style="enable-background:new 0 0 503.504 503.504;" xml:space="preserve">
<g>
	<g>
		<g>
			<path d="M153.129,193.299c0.285,0.78,0.459,1.596,0.518,2.424v93.605c0.449,9.546,8.522,16.938,18.07,16.548h71.053
				c10.858,0.203,21.238-4.459,28.298-12.711c6.831-8.053,9.765-18.708,8.018-29.123l-18.069-108.437l-1.396-1.782
				c-6.369-7.947-7.285-18.961-2.316-27.851c5.316-9.431,15.723-14.807,26.491-13.684c30.018,2.952,51.561,8.422,64.035,16.263
				l20.956,13.193l13.377-12.311c6.268-5.94,6.6-15.814,0.746-22.162l-27.772-29.961c-11.708-12.59-25.729-22.81-41.298-30.101
				l-23.746-11.206c-6.124-2.857-10.064-8.975-10.132-15.732V0l-26.684,0.474c-3.286-0.083-6.367,1.59-8.088,4.391
				c-7.442,14.225-11.023,30.152-10.386,46.193c0,4.961-4.022,8.982-8.982,8.982s-8.982-4.022-8.982-8.982
				c0-2.461,0.077-4.815,0.185-7.123C195.864,61.202,154.644,106.101,153.129,193.299L153.129,193.299z"/>
			<path d="M360.033,296.035c2.686-5.327,1.966-11.738-1.833-16.338l-74.049-94.551l12.655,75.942
				c2.621,15.623-1.779,31.608-12.026,43.689c-0.328,0.388-0.702,0.724-1.041,1.101h59.777
				C350.459,306.058,356.887,302.228,360.033,296.035z"/>
			<path d="M179.893,323.855c-4.959,0.005-8.978,4.024-8.982,8.982v17.965c0.005,4.959,4.024,8.977,8.982,8.982h143.719
				c4.959-0.005,8.977-4.024,8.982-8.982v-17.965c-0.005-4.959-4.024-8.977-8.982-8.982H179.893z"/>
			<path d="M395.471,449.61h-17.935l-0.03,0.004l-0.022-0.004H126.02l-0.022,0.004l-0.03-0.005h-17.935
				c-4.959,0.005-8.977,4.024-8.982,8.982v35.93c0.005,4.959,4.024,8.977,8.982,8.982h8.982v-17.965
				c0-4.961,4.022-8.982,8.982-8.982s8.982,4.022,8.982,8.982v17.965h17.965v-17.965c0-4.961,4.022-8.982,8.982-8.982
				s8.982,4.022,8.982,8.982v17.965h17.965v-17.965c0-4.961,4.022-8.982,8.982-8.982s8.982,4.022,8.982,8.982v17.965h17.965v-17.965
				c0-4.961,4.022-8.982,8.982-8.982s8.982,4.022,8.982,8.982v17.965h17.965v-17.965c0-4.961,4.022-8.982,8.982-8.982
				s8.982,4.022,8.982,8.982v17.965h17.965v-17.965c0-4.961,4.022-8.982,8.982-8.982c4.961,0,8.982,4.022,8.982,8.982v17.965h17.965
				v-17.965c0-4.961,4.022-8.982,8.982-8.982s8.982,4.022,8.982,8.982v17.965h17.965v-17.965c0-4.961,4.022-8.982,8.982-8.982
				s8.982,4.022,8.982,8.982v17.965h8.982c4.959-0.005,8.978-4.024,8.982-8.982v-35.929
				C404.449,453.634,400.43,449.615,395.471,449.61z"/>
			<path d="M132.081,431.645h239.343l5.478-13.697c1.794-4.487,1.704-9.508-0.249-13.928c-1.953-4.42-5.604-7.867-10.129-9.563
				l-44.55-16.706H181.53l-44.55,16.706c-4.524,1.695-8.175,5.142-10.128,9.561c-1.953,4.419-2.043,9.439-0.25,13.926
				L132.081,431.645z"/>
			<path d="M192.718,41.923c-19.492,6.034-36.316,18.587-47.65,35.555c-11.694,19.231-13.628,44.192-6.239,74.282
				C145.023,110.463,163.847,72.095,192.718,41.923z"/>
		</g>
	</g>
</g>
<g>
</g>
<g>
</g>
<g>
</g>
<g>
</g>
<g>
</g>
<g>
</g>
<g>
</g>
<g>
</g>
<g>
</g>
<g>
</g>
<g>
</g>
<g>
</g>
<g>
</g>
<g>
</g>
<g>
</g>
</svg>
