<?xml version="1.0" encoding="iso-8859-1"?>
<!-- Generator: Adobe Illustrator 19.0.0, SVG Export Plug-In . SVG Version: 6.00 Build 0)  -->
<svg version="1.1" id="Capa_1" xmlns="http://www.w3.org/2000/svg" xmlns:xlink="http://www.w3.org/1999/xlink" x="0px" y="0px"
	 viewBox="0 0 512.018 512.018" style="enable-background:new 0 0 512.018 512.018;" xml:space="preserve">
<g>
	<g>
		<path d="M392.543,426.681h-4.461l2.67-6.675c3.408-8.525,3.238-18.063-0.47-26.462s-10.643-14.95-19.238-18.176l-26.556-9.958
			c3.471-4.434,5.367-9.898,5.389-15.529v-17.067c-0.023-3.041-0.593-6.052-1.683-8.891c11.248-1.438,21.023-8.424,26.025-18.601
			c5.452-10.923,4.025-24.023-3.65-33.517l-93.65-119.579c-1.815-2.179-2.084-5.256-0.675-7.717c1.726-3.012,5.1-4.684,8.542-4.233
			c25.492,2.508,43.967,6.971,53.417,12.912l19.917,12.538c6.697,4.207,15.391,3.354,21.142-2.075l12.358-11.658
			c12.735-12.087,13.406-32.159,1.508-45.071l-26.383-28.459c-12.603-13.565-27.7-24.575-44.467-32.429l-22.4-10.158V16.618
			c-0.147-9.305-7.795-16.736-17.1-16.617h-25.317c-9.23-0.07-17.798,4.784-22.483,12.738c-3.54,6.285-6.262,12.996-8.1,19.971
			c-14.417,1.587-63.058,9.742-86.733,48.542c-18.523,30.346-16.782,71.279,5.009,121.626c-0.004,0.663-0.076,1.257-0.076,1.924
			c0,1.135,0.226,2.258,0.667,3.303v83.376c0.17,12.778,7.774,24.284,19.463,29.448c-1.982,3.65-3.035,7.732-3.063,11.885v17.067
			c0.022,5.631,1.918,11.095,5.389,15.529l-26.556,9.958c-8.595,3.225-15.529,9.776-19.237,18.174
			c-3.708,8.398-3.878,17.935-0.471,26.46l2.671,6.679h-4.463c-14.132,0.015-25.585,11.468-25.6,25.6v34.133
			c0.015,14.133,11.467,25.587,25.6,25.605h273.067c14.133-0.017,25.585-11.471,25.6-25.604v-34.133
			C418.127,438.149,406.675,426.696,392.543,426.681z M298.809,264.651l-12.022-72.145l70.347,89.824
			c3.61,4.369,4.293,10.46,1.742,15.521c-2.989,5.883-9.095,9.522-15.692,9.35h-56.789c0.321-0.358,0.677-0.677,0.989-1.046
			C297.119,294.679,301.299,279.494,298.809,264.651z M332.809,332.814v17.067c-0.005,4.711-3.822,8.529-8.533,8.533H187.743
			c-4.711-0.005-8.529-3.822-8.533-8.533v-17.067c0.005-4.711,3.822-8.529,8.533-8.533h136.533
			C328.987,324.285,332.805,328.103,332.809,332.814z M148.732,160.79c-7.02-28.585-5.182-52.299,5.927-70.568
			c10.767-16.119,26.75-28.045,45.268-33.777C172.5,85.108,154.616,121.558,148.732,160.79z M162.809,291.481v-88.925
			c-0.055-0.787-0.221-1.562-0.492-2.303h0c1.44-82.839,40.598-125.492,60.701-141.897c-0.102,2.193-0.176,4.429-0.176,6.767
			c0,4.713,3.82,8.533,8.533,8.533s8.533-3.82,8.533-8.533c-0.605-15.239,2.797-30.37,9.867-43.883
			c1.635-2.661,4.562-4.25,7.684-4.171l25.35-0.45v19.258c0.064,6.419,3.807,12.232,9.625,14.946l22.558,10.646
			c14.791,6.927,28.111,16.635,39.233,28.596l26.383,28.463c5.562,6.031,5.246,15.411-0.708,21.054l-12.708,11.696l-19.908-12.533
			c-11.85-7.45-32.317-12.646-60.833-15.45c-10.229-1.067-20.116,4.04-25.167,13c-4.72,8.445-3.85,18.909,2.2,26.458l1.326,1.693
			l17.166,103.015c1.66,9.894-1.127,20.016-7.617,27.667c-6.707,7.839-16.569,12.268-26.884,12.075h-67.5
			C170.905,307.572,163.236,300.549,162.809,291.481z M137.355,400.435c1.855-4.198,5.323-7.473,9.621-9.083l42.322-15.871H322.72
			l42.322,15.871c4.299,1.611,7.767,4.886,9.622,9.085c1.855,4.199,1.94,8.969,0.236,13.231l-5.204,13.013H142.322l-5.204-13.017
			C135.414,409.402,135.5,404.633,137.355,400.435z M401.076,486.414c-0.005,4.711-3.822,8.529-8.533,8.533h-8.533v-17.067
			c0-4.713-3.82-8.533-8.533-8.533s-8.533,3.82-8.533,8.533v17.067h-17.067v-17.067c0-4.713-3.82-8.533-8.533-8.533
			s-8.533,3.82-8.533,8.533v17.067h-17.067v-17.067c0-4.713-3.82-8.533-8.533-8.533s-8.533,3.82-8.533,8.533v17.067h-17.067v-17.067
			c0-4.713-3.82-8.533-8.533-8.533s-8.533,3.82-8.533,8.533v17.067h-17.067v-17.067c0-4.713-3.82-8.533-8.533-8.533
			s-8.533,3.82-8.533,8.533v17.067h-17.067v-17.067c0-4.713-3.82-8.533-8.533-8.533s-8.533,3.82-8.533,8.533v17.067h-17.067v-17.067
			c0-4.713-3.82-8.533-8.533-8.533c-4.713,0-8.533,3.82-8.533,8.533v17.067h-17.067v-17.067c0-4.713-3.82-8.533-8.533-8.533
			s-8.533,3.82-8.533,8.533v17.067h-8.533c-4.711-0.005-8.529-3.822-8.533-8.533v-34.133c0.005-4.711,3.822-8.529,8.533-8.533
			h17.039l0.028,0.005l0.021-0.004h238.891l0.021,0.004l0.028-0.004h17.039c4.711,0.005,8.529,3.822,8.533,8.533V486.414z"/>
	</g>
</g>
<g>
</g>
<g>
</g>
<g>
</g>
<g>
</g>
<g>
</g>
<g>
</g>
<g>
</g>
<g>
</g>
<g>
</g>
<g>
</g>
<g>
</g>
<g>
</g>
<g>
</g>
<g>
</g>
<g>
</g>
</svg>
